<?xml version="1.0" encoding="UTF-8"?><svg id="Layer_2" xmlns="http://www.w3.org/2000/svg" viewBox="0 0 449.3611 86.1799"><g id="Components"><g id="a69fb8b9-a83c-4357-bac0-273f573ab216_1"><path d="M184.9812,27.48c-.73-1.12-1.5-2.22-2.02-3.4199-1.23-2.5601-.6501-5.5801-1.74-8.1901-1.1602-2.9601-4.77-4.4701-7.71-3.26-1.3901.52-2.5601,1.47-3.78,2.2999l-.0601.05c-1.75,1.28-3.8601,1.88-6,2.1101-3.72.4099-7.3101,1.3499-10.6899,3.0499-15.6001,7.5299-23.24,29.46-14.8101,44.4501,1.1101,2,2.51,3.9199,2.97,6.2.47,2.11.1001,4.4299.79,6.51.8599,2.95,4.1599,4.83,7.1399,4.01,2.49-.6001,4.4302-2.6901,6.8601-3.4401,1.46-.49,2.98-.58,4.54-.72,2.26-.16,4.49-.52,6.6199-1.2101,19.1902-5.8099,29.4299-31.5699,17.8901-48.4399ZM177.4112,51.4099c-2.3501,6.6801-7.46,11.9401-13.3401,13.7201l-.1299.0399c-1.1399.3701-2.46.6001-4.05.7201l-.4299.0299c-1.6599.1401-3.71.3201-6,1.0701-.6301.2-1.21.4199-1.76.6699-.02-.1099-.04-.21-.0701-.3199-.6499-3.1801-2.0901-5.62-3.1599-7.41-.2002-.34-.4001-.6799-.5901-1.02-2.3799-4.24-2.73-9.83-.99-15.3799,1.8799-5.98,5.8999-10.9401,10.75-13.28l.1499-.0801c1.98-1,4.2102-1.6199,6.8201-1.9099,2.72-.29,5.2-.99,7.4099-2.0901.25,1.02.5901,2.1001,1.1101,3.2201.73,1.62,1.5801,2.92,2.28,3.97l.4099.63c3.24,4.74,3.8201,11.09,1.5901,17.4199Z" style="fill:#37930c;"/><path d="M13.9512,56.99c-.3601-.6799-.53-1.48-.5-2.38.03-.89.1699-1.88.4099-2.9501L26.3211,0l-13.8999,2.1599L1.0313,49.77C.3811,52.58.0313,55.23.0013,57.71c-.03,2.48.48,4.6801,1.53,6.5901,1.0398,1.9099,2.7798,3.4199,5.2,4.5299,2.4199,1.1,5.75,1.66,10,1.66l2.6899-11.03c-1.5601-.12-2.77-.3899-3.6301-.8101-.8699-.4199-1.48-.97-1.8398-1.6599Z" style="fill:#37930c;"/><path d="M63.8611,28.83c-.75-1.64-1.79-3.0299-3.1399-4.17-1.3401-1.1299-2.9102-2-4.71-2.5999-1.79-.5901-3.73-.8901-5.8201-.8901-4.25,0-8.1201.8501-11.6201,2.55-3.49,1.71-6.47,3.95-8.9199,6.73s-4.3499,5.96-5.6899,9.55c-1.3501,3.59-2.02,7.29-2.02,11.12,0,2.6901.3601,5.23,1.0701,7.62.72,2.39,1.8699,4.48,3.46,6.28,1.5801,1.79,3.6399,3.21,6.1799,4.26,2.55,1.04,5.6699,1.5699,9.3801,1.5699,3.0398,0,5.8699-.27,8.47-.8099,2.5999-.54,4.74-1.1401,6.4099-1.8l-.99-10.49c-1.73.6599-3.5801,1.1599-5.55,1.48-1.98.3301-3.9199.5-5.8301.5-3.0498,0-5.2798-.53-6.6799-1.5701-1.4099-1.0499-2.3201-2.83-2.74-5.3398,4.3101,0,8.28-.3301,11.9302-.9801,3.6399-.66,6.7998-1.72,9.46-3.1901,2.6599-1.46,4.73-3.3599,6.23-5.6899,1.49-2.33,2.24-5.1699,2.24-8.52,0-2.09-.3701-3.96-1.1201-5.61ZM52.2513,38.5601c-.4202.8398-1.26,1.6199-2.51,2.3398-1.26.7101-3.02,1.3301-5.29,1.8301-2.28.51-5.26.8301-8.97.9399.72-3.58,2.23-6.47,4.53-8.6499,2.2998-2.1801,4.97-3.27,8.02-3.27,3.23,0,4.8499,1.4299,4.8499,4.3,0,.84-.21,1.6799-.6299,2.51Z" style="fill:#37930c;"/><path d="M131.5313,30.72c-.6001-1.95-1.5601-3.62-2.8701-5.02-1.3201-1.4099-2.97-2.48-4.98-3.23-2-.75-4.4102-1.12-7.22-1.12-2.9299,0-5.48.4-7.6599,1.2101-2.1902.7999-4.3801,1.8398-6.5901,3.0898-1.5601-1.4299-3.28-2.5099-5.1599-3.23-1.8801-.72-4.2603-1.0699-7.1301-1.0699-2.3899,0-4.5.1-6.3201.3099-1.8301.2101-3.47.4801-4.9299.8101-1.47.3301-2.78.6899-3.95,1.0701-1.1602.3899-2.26.74-3.27,1.03l-10.8501,45.0199h13.3601l8.7-36.5c.8901-.1801,1.6699-.3099,2.3301-.4.6599-.09,1.46-.1299,2.4199-.1299,2.27,0,3.8.6099,4.5701,1.83.78,1.23,1.1699,2.6801,1.1699,4.35,0,1.02-.1101,2.05-.3101,3.1-.21,1.04-.4099,1.99-.5898,2.8199l-5.9202,24.9301h13.3701l6.0898-25.47c.3-1.1901.53-2.39.6802-3.58.1399-1.2001.22-2.3301.22-3.41v-1.17c0-.4099-.0601-.86-.1799-1.34.8999-.48,1.9099-.9401,3.0498-1.39,1.1301-.45,2.3301-.6699,3.5901-.6699,2.27,0,3.79.6099,4.5701,1.83.78,1.23,1.1699,2.6801,1.1699,4.35,0,1.02-.1099,2.05-.3201,3.1-.21,1.04-.3999,1.99-.5798,2.8199l-5.9202,24.9301h13.3601l6.1001-25.47c.2998-1.1901.52-2.39.6699-3.58.1499-1.2001.23-2.3301.23-3.41,0-2.33-.3-4.4701-.8999-6.41Z" style="fill:#37930c;"/><path d="M232.9612,27.4399c-2.6401-4.0599-7.48-6.09-14.53-6.09-2.3901,0-4.53.1-6.4102.3099-1.8899.2101-3.5898.4801-5.1099.8101-1.53.3301-2.8999.6899-4.1299,1.0701-1.23.3899-2.3501.74-3.3601,1.03l-10.8501,45.0199h13.3601l8.7-36.5c1.79-.36,3.55-.5299,5.29-.5299,1.79,0,3.1199.3398,3.99,1.0299.8599.6801,1.4199,1.58,1.6599,2.6901.24,1.1.25,2.3899.04,3.85-.21,1.47-.49,2.98-.8499,4.5299l-5.9202,24.9301h13.3601l6.1001-25.47c1.73-7.0499,1.2798-12.61-1.3401-16.6801Z" style="fill:#37930c;"/><path d="M257.2412,32.47c.6899-.3,1.4399-.5,2.24-.59.8098-.09,1.6299-.13,2.47-.13,1.9099,0,3.8599.3,5.8301.8999,1.97.5901,3.5898,1.2201,4.8398,1.8801l4.5701-9.96c-1.55-.8301-3.5801-1.6101-6.0901-2.3301-2.51-.71-5.3799-1.0701-8.6099-1.0701-6.8201,0-12,1.4001-15.5601,4.2101-3.5601,2.8099-5.3401,6.64-5.3401,11.48,0,1.85.29,3.4501.8601,4.7999.5601,1.3401,1.3398,2.54,2.3301,3.5801.98,1.05,2.1299,1.95,3.45,2.6899,1.3098.75,2.72,1.4501,4.21,2.1101,1.3201.6,2.3899,1.1199,3.23,1.5699s1.5.88,1.98,1.2999c.47.42.8201.8701,1.03,1.3501s.3101,1.04.3101,1.7c0,1.02-.5701,1.96-1.7002,2.8301-1.1399.8599-3.23,1.2999-6.2798,1.2999s-5.6501-.45-7.8-1.35c-2.1501-.9-3.74-1.64-4.75-2.24l-4.5801,10.22c.54.3,1.3.6899,2.29,1.17.99.48,2.2.9399,3.6301,1.39,1.4399.45,3.0898.8199,4.98,1.1199,1.8799.3,3.9897.4501,6.3198.4501,3.77,0,6.99-.4501,9.6802-1.35,2.6899-.9,4.9099-2.0601,6.6399-3.5,1.73-1.4299,3-3.0701,3.8101-4.9299.8098-1.8501,1.21-3.7301,1.21-5.6501,0-1.8499-.21-3.46-.6301-4.84-.4199-1.37-1.0898-2.6-2.0098-3.6801-.9302-1.0699-2.1702-2.0898-3.7302-3.0499-1.55-.9501-3.49-2-5.8198-3.13-1.6802-.84-2.9802-1.5601-3.9001-2.1599-.9299-.5901-1.3899-1.49-1.3899-2.6901,0-.89.2-1.61.6199-2.15.4202-.54.9702-.95,1.6602-1.25Z" style="fill:#37930c;"/><path d="M319.9312,33.23c-.74-2.36-1.8901-4.4299-3.45-6.1899-1.55-1.76-3.54-3.15-5.9602-4.17-2.4199-1.01-5.3098-1.52-8.6599-1.52-3.5798,0-6.9199.28-9.99.85-3.0801.5701-5.8198,1.21-8.21,1.9301l-14.8799,62.0499h13.27l4.0298-16.23c2.03.3601,4.0701.54,6.1001.54,4.1799,0,8.0601-.74,11.6099-2.2,3.5601-1.4601,6.6101-3.51,9.1501-6.1401,2.54-2.6299,4.53-5.7599,5.96-9.3699,1.4399-3.6201,2.1501-7.6101,2.1501-11.97,0-2.6901-.3701-5.2201-1.1201-7.5801ZM306.6612,49.01c-.75,2.1799-1.79,4.05-3.1401,5.6-1.3398,1.5599-2.9697,2.77-4.8799,3.64-1.9199.86-4.04,1.3-6.3701,1.3-1.5,0-2.75-.1201-3.7698-.3601l6.28-26.1c1.6699-.36,3.47-.5299,5.3799-.5299,2.8101,0,4.78.8899,5.9199,2.6899,1.1301,1.79,1.7002,3.97,1.7002,6.54,0,2.6299-.3701,5.0399-1.1201,7.22Z" style="fill:#37930c;"/><path d="M364.271,49.23l5.8301-24.39c-1.74-.83-3.5601-1.49-5.47-1.97-1.9199-.48-3.74-.8199-5.47-1.03-1.74-.21-3.28-.34-4.6201-.4-1.3499-.0599-2.2898-.09-2.8298-.09-4.1201,0-7.95.77-11.48,2.33-3.52,1.55-6.5901,3.6901-9.1902,6.41-2.5999,2.7201-4.6299,5.9-6.0898,9.55-1.47,3.65-2.2,7.5299-2.2,11.66,0,2.6899.3,5.21.8999,7.5699.5901,2.37,1.5601,4.4301,2.9099,6.1901,1.3401,1.7699,3.0801,3.1699,5.2002,4.22,2.1199,1.04,4.6799,1.5699,7.6699,1.5699,2.51,0,4.78-.4501,6.8101-1.35,2.0298-.9,3.8899-2.03,5.5601-3.41.2998.84.5999,1.59.8999,2.25.3.65.6299,1.34.99,2.0599l11.9199-1.71c-1.01-2.6899-1.7-5.75-2.0598-9.1899-.3601-3.4299-.1201-6.86.7197-10.27ZM351.4412,46.8999c-.3,1.3801-.5801,2.8901-.8501,4.53-.27,1.65-.46,3.22-.5798,4.7101-1.26,1.2599-2.4402,2.15-3.54,2.6899-1.1101.54-2.3501.8101-3.72.8101-2.5801,0-4.3401-.84-5.29-2.51-.96-1.6801-1.4402-3.9501-1.4402-6.8199,0-2.3301.3701-4.5701,1.1201-6.7201.75-2.16,1.78-4.0499,3.0901-5.7,1.3201-1.64,2.8599-2.9701,4.6199-3.9901,1.77-1.0099,3.6602-1.5199,5.7002-1.5199.8899,0,1.6599.0299,2.2798.09.6301.0601,1.3301.15,2.1101.26l-3.5,14.1699Z" style="fill:#37930c;"/><path d="M397.5513,32.47c1.8499,0,3.4199.1899,4.7.5801,1.2898.3899,2.53.8199,3.73,1.2999l4.5701-10.4c-1.7402-.84-3.6602-1.51-5.7803-2.02-2.1299-.51-4.5298-.76-7.2197-.76-4.3101,0-8.2102.77-11.7102,2.3301-3.49,1.55-6.47,3.6699-8.9199,6.37-2.45,2.6901-4.3301,5.8199-5.6501,9.41-1.3098,3.59-1.9697,7.4099-1.9697,11.48,0,2.6899.3699,5.26,1.1199,7.71.75,2.45,1.96,4.5901,3.6301,6.41,1.6699,1.83,3.7998,3.2799,6.3699,4.35,2.5701,1.0801,5.71,1.62,9.4099,1.62,2.8701,0,5.3101-.26,7.3101-.77,2-.5,3.8401-1.09,5.52-1.74l-.99-10.6801c-1.25.54-2.6899.99-4.3,1.3501-1.6199.36-3.29.54-5.02.54-3.53,0-5.95-.9401-7.27-2.8301-1.3101-1.88-1.97-4.35-1.97-7.3999,0-5.2001,1.28-9.3101,3.8501-12.3301,2.5701-3.01,6.0999-4.52,10.5901-4.52Z" style="fill:#37930c;"/><path d="M448.2412,28.83c-.75-1.64-1.8-3.0299-3.1401-4.17-1.3499-1.1299-2.9199-2-4.71-2.5999-1.79-.5901-3.74-.8901-5.8301-.8901-4.25,0-8.1099.8501-11.6099,2.55-3.5,1.71-6.47,3.95-8.9199,6.73-2.4602,2.78-4.3501,5.96-5.7002,9.55-1.3398,3.59-2.02,7.29-2.02,11.12,0,2.6901.3601,5.23,1.0801,7.62.72,2.39,1.8701,4.48,3.45,6.28,1.5901,1.79,3.6501,3.21,6.1902,4.26,2.5398,1.04,5.6599,1.5699,9.3699,1.5699,3.05,0,5.8699-.27,8.47-.8099,2.6001-.54,4.74-1.1401,6.4199-1.8l-.9897-10.49c-1.7402.6599-3.5901,1.1599-5.5601,1.48-1.9702.3301-3.9202.5-5.8301.5-3.05,0-5.28-.53-6.6799-1.5701-1.4001-1.0499-2.3201-2.83-2.73-5.3398,4.3,0,8.2698-.3301,11.9199-.9801,3.6499-.66,6.8-1.72,9.46-3.1901,2.6599-1.46,4.74-3.3599,6.23-5.6899,1.5-2.33,2.25-5.1699,2.25-8.52,0-2.09-.3799-3.96-1.1199-5.61ZM436.6211,38.5601c-.4199.8398-1.25,1.6199-2.51,2.3398-1.25.7101-3.02,1.3301-5.29,1.8301-2.2698.51-5.26.8301-8.97.9399.72-3.58,2.23-6.47,4.53-8.6499,2.3-2.1801,4.98-3.27,8.03-3.27,3.23,0,4.8401,1.4299,4.8401,4.3,0,.84-.2102,1.6799-.6301,2.51Z" style="fill:#37930c;"/></g></g></svg>